<svg width="93" height="67" viewBox="0 0 93 67" fill="none" xmlns="http://www.w3.org/2000/svg">
<path d="M23.2097 0.881312C23.4447 0.723523 23.865 0.462153 24.1442 0.300072C24.4235 0.13799 24.6815 0.00327992 24.7183 0.000596448C24.7551 -0.00262372 24.785 0.00757347 24.785 0.0220642C24.785 0.036555 24.7466 0.19971 24.6991 0.384333C24.6418 0.607955 24.6241 0.81816 24.6462 1.01495C24.6644 1.17703 24.7279 1.491 24.7877 1.71265C24.8475 1.93377 24.9597 2.28423 25.0366 2.49086C25.114 2.69748 25.2838 3.09571 25.4136 3.3764C25.5439 3.65709 25.8071 4.27268 25.9988 4.74497C26.1905 5.21726 26.4501 5.91765 26.5755 6.30138C26.701 6.68512 26.857 7.26475 26.9221 7.58945C26.9942 7.94743 27.0513 8.47553 27.0679 8.93119C27.0887 9.5135 27.0743 9.78507 27.0038 10.1387C26.9531 10.3894 26.8287 10.7758 26.7261 10.9975C26.6236 11.2186 26.4362 11.5449 26.3091 11.722C26.1825 11.8991 25.9139 12.2029 25.7121 12.3972C25.5108 12.5909 25.1295 12.8957 24.8651 13.0734C24.6008 13.2516 24.2585 13.4609 24.1042 13.5392C23.9499 13.6171 23.8116 13.6809 23.7971 13.6809C23.7827 13.6809 23.7795 13.6144 23.7907 13.5333C23.802 13.4523 23.8623 13.1925 23.9248 12.9564C23.9872 12.7202 24.0599 12.2614 24.0855 11.9367C24.1133 11.5927 24.1127 11.0667 24.085 10.6754C24.0583 10.3062 23.9894 9.7271 23.9317 9.38738C23.8746 9.04765 23.7165 8.23885 23.5814 7.58945C23.4458 6.94005 23.3005 6.21551 23.2578 5.97937C23.2146 5.74322 23.1446 5.24785 23.1013 4.87915C23.0581 4.5099 23.0223 4.19593 23.0212 4.18144C23.0202 4.16695 22.9988 4.1911 22.9732 4.23511C22.9476 4.27912 22.8963 4.55713 22.86 4.85231C22.8167 5.19955 22.805 5.66379 22.8269 6.16721C22.8456 6.59549 22.9225 7.4161 22.9977 7.99197C23.073 8.56784 23.1563 9.19524 23.183 9.38738C23.2097 9.57951 23.2477 10.0743 23.2674 10.4876C23.2893 10.9534 23.2797 11.4327 23.2418 11.7488C23.2076 12.0295 23.1062 12.5002 23.0159 12.7954C22.9251 13.0906 22.8023 13.4287 22.743 13.5468C22.6832 13.6648 22.5657 13.8639 22.4814 13.9895C22.3975 14.1151 22.2865 14.2171 22.2352 14.2165C22.1839 14.2155 22.0216 14.1387 21.8747 14.0448C21.7279 13.9514 21.4155 13.7255 21.1805 13.543C20.9456 13.3605 20.6193 13.0696 20.4559 12.8957C20.292 12.7224 20.0431 12.424 19.9032 12.2319C19.7628 12.0397 19.5684 11.7381 19.4701 11.561C19.3724 11.3839 19.2293 11.0699 19.1524 10.8633C19.0755 10.6567 18.949 10.2461 18.8715 9.95091C18.7455 9.47325 18.7295 9.31385 18.7279 8.50183C18.7263 7.74026 18.746 7.5009 18.8475 7.05276C18.9142 6.75758 19.0552 6.26221 19.1599 5.95253C19.2651 5.64286 19.4563 5.17755 19.585 4.9194C19.7136 4.66125 19.907 4.31079 20.0143 4.14119C20.1222 3.9716 20.3427 3.65119 20.5056 3.43007C20.6679 3.20842 21.03 2.78604 21.3108 2.49086C21.5912 2.19568 22.0371 1.77759 22.3014 1.5613C22.5663 1.34502 22.9748 1.0391 23.2097 0.881312Z" fill="#00AF4D"/>
<path d="M0.110508 24.6027C0.0539041 24.3665 0.00531011 24.1207 0.00157211 24.0563C-0.00483589 23.9398 -0.0037679 23.9398 0.254688 24.0815C0.467754 24.198 0.601788 24.2275 0.995346 24.2447C1.25968 24.2565 1.77659 24.2275 2.14345 24.1803C2.51084 24.1336 3.13562 24.0708 3.53185 24.0413C4.0023 24.0058 4.46581 24.0053 4.86685 24.0391C5.20433 24.0676 5.66144 24.1411 5.88145 24.2028C6.10199 24.2651 6.39996 24.3799 6.54361 24.4588C6.68779 24.5382 6.93396 24.7293 7.09096 24.8844C7.24795 25.0395 7.45888 25.317 7.55874 25.5016C7.65913 25.6862 7.78889 25.9938 7.8471 26.1859C7.90531 26.378 7.96725 26.6496 7.98541 26.7897C8.00303 26.9298 8.0057 27.0446 7.99075 27.0446C7.97633 27.0446 7.84977 26.9716 7.7104 26.8825C7.57102 26.7934 7.28854 26.6501 7.08295 26.5643C6.87736 26.4784 6.46885 26.3598 6.17515 26.3008C5.88145 26.2412 5.35279 26.166 5.00035 26.1338C4.64791 26.1011 4.13153 26.0501 3.85225 26.0201C3.5735 25.99 3.21305 25.9449 3.05125 25.9197C2.88998 25.8939 2.64968 25.8574 2.51725 25.8381C2.2919 25.8048 2.28389 25.8081 2.38375 25.887C2.44249 25.9331 2.7191 26.0448 2.99785 26.1344C3.27713 26.2245 3.84157 26.3576 4.25275 26.4312C4.66393 26.5042 5.28871 26.6212 5.64115 26.6909C5.99359 26.7602 6.45016 26.8841 6.65575 26.9657C6.86134 27.0473 7.15557 27.1954 7.3099 27.2942C7.46422 27.3929 7.69865 27.5824 7.83055 27.7155C7.96298 27.8486 8.07085 27.9994 8.07138 28.0509C8.07138 28.103 7.91065 28.2742 7.71093 28.4346C7.51228 28.594 7.15771 28.8168 6.92275 28.93C6.68779 29.0427 6.33908 29.1774 6.14845 29.2284C5.90174 29.295 5.60804 29.3207 5.13385 29.318C4.56781 29.3154 4.39319 29.2923 3.98575 29.1688C3.72142 29.0889 3.34067 28.9343 3.13989 28.8254C2.93911 28.717 2.5904 28.4803 2.36559 28.3005C2.14078 28.1201 1.8396 27.8427 1.69595 27.6833C1.55284 27.5239 1.33283 27.2486 1.20681 27.0714C1.08132 26.8943 0.859176 26.5203 0.713928 26.2396C0.56868 25.9589 0.396732 25.573 0.33105 25.3809C0.265902 25.1887 0.166578 24.8388 0.110508 24.6027Z" fill="#00AF4D"/>
<path fill-rule="evenodd" clip-rule="evenodd" d="M39.964 1.29189C40.0446 1.28706 40.1114 1.30155 40.1124 1.32355C40.113 1.34556 40.0308 1.47222 39.9293 1.60532C39.8278 1.73788 39.6954 1.97349 39.634 2.12859C39.5731 2.2837 39.485 2.62182 39.438 2.87997C39.3739 3.23257 39.3414 3.94369 39.3077 5.73786C39.2826 7.05115 39.2388 8.28287 39.21 8.475C39.1812 8.66714 39.1085 9.08952 39.0487 9.41422C38.9889 9.73892 38.8773 10.2219 38.8004 10.4876C38.7235 10.7533 38.5916 11.1515 38.5067 11.3731C38.4218 11.5943 38.2397 11.9447 38.1025 12.1514C37.9652 12.358 37.7661 12.6269 37.6603 12.7487C37.5541 12.8705 37.3111 13.1002 37.1199 13.2586C36.9287 13.4169 36.58 13.6471 36.3456 13.7695C36.1107 13.8919 35.763 14.04 35.5718 14.099C35.3807 14.1575 35.0202 14.2466 34.7708 14.2976C34.5215 14.348 34.0767 14.4087 33.783 14.4318C33.4893 14.4548 33.2324 14.4586 33.2121 14.4398C33.1923 14.421 33.3104 14.2488 33.4748 14.0566C33.6398 13.8645 33.8753 13.5511 33.9987 13.3589C34.122 13.1668 34.2961 12.8652 34.3848 12.6881C34.4739 12.5109 34.6422 12.1122 34.7596 11.8025C34.8771 11.4923 35.0224 11.0699 35.0827 10.8633C35.143 10.6567 35.2627 10.1736 35.3486 9.7899C35.4346 9.40617 35.5825 8.70578 35.6781 8.23349C35.7737 7.7612 35.9681 6.92771 36.1107 6.3819C36.2532 5.83608 36.4305 5.21405 36.5047 4.99991C36.579 4.78577 36.6158 4.62261 36.5864 4.63764C36.5571 4.65213 36.4353 4.81529 36.3162 4.99991C36.1966 5.18453 35.9894 5.56451 35.8554 5.8452C35.7214 6.12536 35.5217 6.60838 35.4116 6.91859C35.3016 7.22826 35.0731 7.9528 34.9049 8.52867C34.7361 9.10401 34.4665 9.96165 34.3052 10.4339C34.1445 10.9062 33.9116 11.51 33.7878 11.7757C33.6639 12.0413 33.438 12.446 33.2858 12.6746C33.1336 12.9033 32.8463 13.2618 32.6482 13.4711C32.4501 13.6809 32.1318 13.96 31.9406 14.0926C31.7463 14.2268 31.5476 14.325 31.4889 14.3153C31.4317 14.3062 31.294 14.1774 31.1834 14.0298C31.0724 13.8822 30.8625 13.5317 30.7173 13.2516C30.5715 12.9709 30.368 12.5244 30.266 12.2587C30.1635 11.993 30.0273 11.5218 29.9632 11.2121C29.8751 10.7839 29.8468 10.4618 29.8468 9.87041C29.8468 9.28165 29.8751 8.95481 29.9627 8.52867C30.0263 8.21846 30.164 7.74778 30.2687 7.48212C30.3739 7.21645 30.5432 6.83004 30.6452 6.62341C30.7472 6.41678 30.9602 6.05451 31.1183 5.81837C31.2764 5.58222 31.5871 5.18346 31.8082 4.93282C32.0298 4.68219 32.3961 4.31348 32.6231 4.11329C32.85 3.91364 33.2158 3.62007 33.4358 3.46067C33.6564 3.30127 33.9923 3.07586 34.1834 2.95886C34.3746 2.8424 34.8552 2.5982 35.2514 2.41519C35.6477 2.23271 36.2308 1.99979 36.5464 1.89782C36.862 1.79584 37.4147 1.65308 37.7746 1.58009C38.1345 1.5071 38.6568 1.42284 38.936 1.39225C39.2153 1.3622 39.5277 1.32892 39.6302 1.31872C39.7328 1.30853 39.8834 1.29672 39.964 1.29189ZM51.5384 6.03036C52.6582 6.04378 53.0187 6.06793 53.5677 6.16614C53.935 6.23162 54.4514 6.34003 54.7158 6.40766C54.9801 6.47528 55.3646 6.58101 55.5701 6.6438C55.7757 6.70606 55.9797 6.78334 56.0241 6.81501C56.0951 6.86653 56.0951 6.87673 56.0241 6.90625C55.9797 6.92449 55.8003 7.0372 55.6246 7.15688C55.4489 7.27656 55.1899 7.51969 55.049 7.6968C54.908 7.8739 54.6543 8.29628 54.4856 8.63601C54.3169 8.97574 54.1225 9.38577 54.0536 9.54839C53.9847 9.71047 53.7503 10.3143 53.5319 10.8901C53.314 11.4655 52.9786 12.2866 52.7864 12.7149C52.5942 13.1426 52.3165 13.7223 52.1691 14.003C52.0212 14.2831 51.6949 14.8268 51.4439 15.2105C51.193 15.5942 50.9292 15.9807 50.8576 16.0692C50.7866 16.1578 50.5319 16.4331 50.2921 16.6805C50.0523 16.9285 49.6641 17.2585 49.4291 17.4142C49.1942 17.5698 48.8337 17.7732 48.6282 17.8666C48.4226 17.9595 48.0744 18.0883 47.8538 18.1527C47.5046 18.2541 47.3268 18.2686 46.4655 18.2664C45.6447 18.2643 45.3873 18.2434 44.9436 18.1435C44.6498 18.0775 44.2296 17.9605 44.0091 17.8832C43.789 17.806 43.5845 17.7249 43.5551 17.7035C43.5258 17.682 43.7298 17.5462 44.0091 17.4018C44.2883 17.2575 44.7209 16.9843 44.9702 16.7948C45.2196 16.6054 45.6345 16.2377 45.8914 15.978C46.1483 15.7182 46.545 15.2663 46.7725 14.9738C47 14.6813 47.2787 14.3126 47.3919 14.1554C47.5051 13.9976 48.013 13.229 48.5214 12.4465C49.0297 11.664 49.5621 10.8601 49.7042 10.6593C49.8467 10.4586 50.2104 9.9756 50.5132 9.58596C50.8154 9.19632 51.0557 8.87162 51.0472 8.86411C51.0381 8.85659 50.8512 8.97574 50.6306 9.12923C50.4106 9.28273 49.9802 9.6509 49.6748 9.94769C49.3693 10.2445 48.8781 10.7774 48.5833 11.1316C48.2885 11.4859 47.8485 12.0413 47.605 12.366C47.3615 12.6907 47.0961 13.0412 47.0155 13.1442C46.9348 13.2473 46.6726 13.5736 46.4334 13.8688C46.1936 14.164 45.7125 14.6846 45.3638 15.0254C45.0151 15.3662 44.574 15.7558 44.3828 15.891C44.1917 16.0263 43.8558 16.2275 43.6353 16.3386C43.4152 16.4492 43.0425 16.6097 42.8075 16.6945C42.5726 16.7798 42.2442 16.8668 41.7759 16.9279L41.691 16.6328C41.644 16.4701 41.5692 16.1562 41.5249 15.9351C41.48 15.7134 41.4288 15.1461 41.4111 14.6738C41.386 14.0099 41.3994 13.675 41.4693 13.1979C41.519 12.8566 41.645 12.329 41.7502 12.0172C41.8554 11.707 42.0231 11.2723 42.1235 11.0511C42.2239 10.8295 42.4669 10.4071 42.6628 10.1119C42.8588 9.81674 43.2604 9.32459 43.5541 9.01814C43.8483 8.71222 44.3172 8.28877 44.5964 8.07731C44.8757 7.86585 45.32 7.57014 45.5844 7.4204C45.8487 7.27066 46.3592 7.02432 46.7191 6.87243C47.079 6.72055 47.5714 6.53861 47.8138 6.4683C48.0562 6.39746 48.5069 6.28905 48.815 6.22625C49.1232 6.164 49.5562 6.09047 49.7762 6.0631C49.9968 6.03626 50.7898 6.02124 51.5384 6.03036ZM11.4041 6.08671L11.4623 6.32823C11.4943 6.46079 11.5894 6.69049 11.6737 6.83809C11.7581 6.98568 11.9851 7.26476 12.1784 7.45797C12.3717 7.65118 13.0216 8.20666 13.6228 8.69236C14.2241 9.17807 14.9573 9.81728 15.2515 10.113C15.5463 10.4092 15.9495 10.8681 16.1476 11.1327C16.3457 11.3978 16.5785 11.7472 16.665 11.9098C16.751 12.0719 16.8733 12.3617 16.9368 12.5539C17.0134 12.7864 17.0611 13.0995 17.08 13.4931C17.104 13.9842 17.0896 14.1602 16.9945 14.5396C16.932 14.7903 16.7948 15.1767 16.6896 15.3984C16.5849 15.6195 16.3868 15.9651 16.2496 16.1653C16.1129 16.366 15.989 16.5292 15.974 16.5286C15.9596 16.5276 15.8811 16.2673 15.8005 15.9495C15.7199 15.6313 15.5581 15.1783 15.4416 14.9422C15.3252 14.706 15.0865 14.2954 14.9119 14.0298C14.7368 13.7641 14.4538 13.3739 14.2823 13.163C14.1115 12.9521 13.5972 12.3124 13.1396 11.7408C12.6819 11.1697 12.1773 10.5139 12.0182 10.2842C11.859 10.054 11.7229 9.86665 11.7154 9.86826C11.7079 9.86933 11.7645 10.0454 11.8414 10.2595C11.9183 10.4737 12.0924 10.8654 12.2286 11.13C12.3647 11.3952 12.8811 12.1921 13.3756 12.9011C13.9876 13.7792 14.3758 14.3963 14.5905 14.8348C14.7902 15.2422 14.9557 15.6764 15.0401 16.0156C15.1245 16.351 15.1746 16.7031 15.1746 16.9548C15.1746 17.1909 15.1469 17.3992 15.1074 17.4582C15.0465 17.5489 14.9904 17.5559 14.5589 17.5264C14.2946 17.5086 13.8861 17.4448 13.6511 17.3847C13.4162 17.3246 13.0557 17.2102 12.8501 17.1308C12.6446 17.0514 12.266 16.8464 12.0091 16.6752C11.7522 16.5045 11.3784 16.2013 11.1793 16.0021C10.9801 15.803 10.7184 15.495 10.5983 15.3179C10.4781 15.1407 10.3067 14.8509 10.2175 14.6738C10.1278 14.4967 10.0045 14.2251 9.94359 14.07C9.88271 13.9149 9.76683 13.5285 9.6862 13.2113C9.54843 12.6693 9.53935 12.5668 9.54255 11.5073C9.54522 10.3846 9.54629 10.3776 9.74227 9.62889C9.85067 9.21564 10.0082 8.69612 10.0931 8.475C10.1775 8.25335 10.3329 7.89108 10.4375 7.66996C10.5427 7.44831 10.7441 7.0855 10.885 6.86331C11.026 6.64112 11.2006 6.37545 11.2727 6.27295L11.4041 6.08671ZM3.69365 13.6273C3.72249 13.6273 3.74491 13.6455 3.74385 13.6675C3.74331 13.6901 3.80953 13.8103 3.8907 13.9348C3.9724 14.0598 4.1593 14.2493 4.30615 14.3556C4.453 14.4618 4.72908 14.6287 4.92025 14.7264C5.11089 14.8241 5.67586 15.0656 6.17515 15.2636C6.67444 15.4611 7.39534 15.7805 7.77715 15.9737C8.15896 16.1664 8.6748 16.4599 8.92365 16.6263C9.17249 16.7922 9.55857 17.1093 9.78125 17.3305C10.0045 17.5521 10.272 17.8779 10.3756 18.055C10.4797 18.2321 10.6063 18.4978 10.6575 18.6454C10.7083 18.7929 10.7761 19.1193 10.8081 19.3699C10.8557 19.7424 10.8509 19.9302 10.7804 20.3896C10.7334 20.6998 10.6389 21.1168 10.571 21.317C10.5027 21.5172 10.4349 21.6809 10.4204 21.6804C10.4055 21.6798 10.3371 21.5644 10.2683 21.4238C10.1994 21.2832 10.0397 21.0229 9.91368 20.8458C9.78766 20.6687 9.53775 20.373 9.35832 20.1884C9.1789 20.0043 8.84568 19.7048 8.6182 19.5234C8.39071 19.3425 7.81987 18.94 7.34995 18.6293C6.88003 18.3185 6.23122 17.865 5.90815 17.6213C5.58508 17.3777 5.24278 17.1163 5.1472 17.0401C5.05161 16.9639 4.97418 16.9193 4.97525 16.9414C4.97578 16.9639 5.07724 17.1147 5.2006 17.2768C5.32395 17.4394 5.59362 17.7373 5.79975 17.9396C6.0064 18.1414 6.63172 18.6749 7.18975 19.1246C7.74778 19.5744 8.39659 20.1347 8.63155 20.3692C8.86651 20.6038 9.1805 20.9762 9.32895 21.1968C9.4774 21.4168 9.65362 21.7421 9.71984 21.9192C9.78606 22.0963 9.86455 22.362 9.89339 22.5096C9.92276 22.6571 9.93878 22.7849 9.9297 22.7924C9.92062 22.8004 9.76897 22.8439 9.59275 22.8895C9.41653 22.9346 8.95996 22.9856 8.57815 23.0028C8.03454 23.0275 7.78569 23.014 7.43005 22.9416C7.18014 22.8906 6.81969 22.7908 6.62905 22.7199C6.43788 22.6496 6.09078 22.4768 5.85688 22.3362C5.59843 22.1806 5.24278 21.8913 4.94748 21.5972C4.68048 21.3315 4.37557 20.9816 4.2693 20.819C4.16357 20.6569 3.97934 20.3429 3.86026 20.1213C3.74118 19.9001 3.5735 19.5014 3.48699 19.2357C3.40102 18.9701 3.28567 18.5477 3.23121 18.2965C3.15217 17.9305 3.13295 17.6176 3.13455 16.7133C3.13669 15.7472 3.15431 15.5062 3.25897 15.0227C3.32572 14.713 3.43947 14.2724 3.51156 14.0432C3.58365 13.8146 3.66535 13.6273 3.69365 13.6273ZM6.01495 31.8813C6.10306 31.8786 6.2953 31.9087 6.44215 31.9479C6.589 31.987 6.81702 32.067 6.94945 32.1255C7.08135 32.184 7.35315 32.3869 7.55287 32.5763C7.75205 32.7663 7.91439 32.9338 7.91332 32.9483C7.91225 32.9633 7.67676 32.9907 7.39053 33.0089C7.00125 33.0341 6.75454 33.0851 6.41545 33.2096C6.16554 33.3019 5.57119 33.5703 5.0938 33.807C4.6164 34.0431 4.16571 34.2487 4.09255 34.2632C4.01886 34.2782 3.95905 34.3141 3.95905 34.3437C3.95905 34.3732 4.00123 34.3877 4.0525 34.3753C4.10376 34.363 4.22978 34.3394 4.33285 34.3222C4.43538 34.305 4.86792 34.1563 5.29405 33.9916C5.71965 33.8268 6.16447 33.6588 6.28195 33.618C6.39943 33.5773 6.65148 33.507 6.84265 33.4613C7.03329 33.4163 7.32165 33.3798 7.48345 33.3798C7.64472 33.3798 7.8973 33.412 8.04415 33.4506C8.29299 33.5166 8.31008 33.5322 8.29726 33.6776C8.28979 33.7635 8.19954 34.0093 8.09701 34.2229C7.9806 34.4666 7.78356 34.7478 7.57156 34.9743C7.35102 35.2104 7.10431 35.4058 6.86401 35.5346C6.66162 35.6435 6.33909 35.7702 6.14845 35.8158C5.95728 35.8614 5.58508 35.8995 5.32075 35.9001C4.987 35.9011 4.68475 35.8625 4.33285 35.7739C4.05357 35.7036 3.66909 35.5668 3.47845 35.4707C3.28728 35.3741 2.98717 35.1965 2.81095 35.0757C2.63473 34.955 2.32714 34.6984 2.12796 34.5063C1.92825 34.3136 1.76591 34.1258 1.76751 34.0887C1.76858 34.0485 1.84387 34.0216 1.95655 34.0216C2.05908 34.0216 2.26947 33.9583 2.4238 33.881C2.57812 33.8037 2.9562 33.5424 3.26485 33.3003C3.57297 33.0583 3.96973 32.7626 4.14595 32.6434C4.32217 32.5243 4.59825 32.3584 4.76005 32.2758C4.92132 32.1926 5.23371 32.0708 5.45425 32.0053C5.67426 31.9398 5.92684 31.884 6.01495 31.8813ZM10.1534 37.2123C10.4322 37.2241 10.7515 37.266 10.8621 37.3051C10.9731 37.3443 11.0629 37.3942 11.0623 37.4162C11.0618 37.4388 10.9352 37.5263 10.7809 37.611C10.6266 37.6958 10.3804 37.8842 10.2335 38.0297C10.0867 38.1751 9.83251 38.4741 9.66911 38.6936C9.5057 38.9136 9.22322 39.293 9.04166 39.5362C8.8601 39.7798 8.71165 39.9913 8.71165 40.0058C8.71165 40.0208 8.8099 39.9543 8.93005 39.8582C9.0502 39.7627 9.41653 39.373 9.7444 38.9925C10.0723 38.6125 10.4605 38.2148 10.6073 38.1086C10.7542 38.0023 10.9886 37.873 11.128 37.8204C11.2674 37.7678 11.4415 37.7248 11.5151 37.7248C11.6193 37.7248 11.6609 37.764 11.7031 37.8993C11.733 37.9953 11.757 38.2186 11.7576 38.3957C11.7576 38.5959 11.7053 38.8803 11.6193 39.1471C11.5434 39.3832 11.4051 39.6956 11.3117 39.8405C11.2177 39.9859 11.0212 40.2092 10.8743 40.3364C10.7275 40.4636 10.4749 40.6321 10.3136 40.7105C10.1518 40.7894 9.88752 40.9015 9.72625 40.96C9.51639 41.0362 9.24191 41.0743 8.76505 41.0937C8.2492 41.1146 8.00036 41.099 7.67035 41.0266C7.43539 40.975 7.15878 40.8978 6.86935 40.7765L7.13848 40.4985C7.34087 40.2902 7.46583 40.0868 7.63884 39.6838C7.76593 39.3886 7.98114 38.9329 8.1173 38.6705C8.26255 38.3903 8.49645 38.0506 8.68495 37.8461C8.86117 37.6545 9.08918 37.4479 9.19225 37.3867C9.29478 37.3255 9.43896 37.2563 9.51265 37.2332C9.58581 37.2096 9.87417 37.2005 10.1534 37.2123Z" fill="#00AF4D"/>
<path d="M51.752 5.99225C51.532 6.00245 51.1593 6.00245 50.9243 5.99225C50.6894 5.98259 50.8699 5.97401 51.3248 5.97401C51.7803 5.97401 51.9726 5.98259 51.752 5.99225Z" fill="#FABC14"/>
<path d="M43.2881 9.25321L43.6336 8.89094C43.8237 8.69182 43.9861 8.52867 43.9941 8.52867C44.0021 8.52867 44.009 8.53457 44.0096 8.54209C44.0096 8.5496 43.8478 8.71222 43.2881 9.25321Z" fill="#FABC14"/>
<path d="M17.1344 13.8151C17.1227 13.9332 17.1131 13.8607 17.1131 13.6541C17.1125 13.4475 17.1221 13.3509 17.1339 13.4394C17.1456 13.528 17.1456 13.697 17.1344 13.8151Z" fill="#FABC14"/>
<path d="M3.09023 16.9548C3.07901 17.0879 3.06994 16.9907 3.06994 16.7401C3.06994 16.4895 3.07901 16.3805 3.09023 16.4986C3.10144 16.6166 3.10144 16.8217 3.09023 16.9548Z" fill="#FABC14"/>
<path d="M23.8505 44.836L24.2227 44.4469C24.4278 44.2328 24.6019 44.0578 24.6099 44.0578C24.6184 44.0578 24.6248 44.0637 24.6254 44.0712C24.6254 44.0788 24.4513 44.2537 23.8505 44.836Z" fill="#FABC14"/>
<path d="M14.3037 50.5787C14.2925 50.6967 14.2829 50.6243 14.2823 50.4176C14.2823 50.211 14.2914 50.1144 14.3032 50.203C14.3149 50.2915 14.3154 50.4606 14.3037 50.5787Z" fill="#FABC14"/>
<path fill-rule="evenodd" clip-rule="evenodd" d="M23.4901 21.9739C23.2626 22.0174 22.8899 22.1253 22.6624 22.2127C22.4349 22.3008 22.0681 22.4913 21.848 22.6362C21.6275 22.7811 21.2697 23.0656 21.0524 23.2684C20.835 23.4708 20.544 23.8057 20.4052 24.0123C20.2669 24.2189 20.0682 24.557 19.9641 24.7637C19.8594 24.9703 19.7238 25.3084 19.6618 25.515C19.5999 25.7217 19.5305 26.1081 19.507 26.3737C19.4835 26.6394 19.4824 27.0741 19.5049 27.3398C19.5273 27.6055 19.609 28.0402 19.6859 28.3058C19.7628 28.5715 19.9299 28.9821 20.057 29.2182C20.1846 29.4544 20.4196 29.8166 20.5787 30.0233C20.7379 30.2299 21.023 30.532 21.2115 30.6947C21.4 30.8573 21.7108 31.0859 21.9014 31.2024C22.0921 31.3188 22.4766 31.497 22.7558 31.5979C23.2226 31.767 23.3246 31.7842 24.0374 31.8078C24.7146 31.8303 24.8684 31.819 25.2656 31.716C25.515 31.6511 25.9 31.5287 26.12 31.4439C26.3406 31.3591 26.7069 31.168 26.9344 31.0188C27.1619 30.8696 27.4994 30.597 27.6836 30.4124C27.8684 30.2277 28.1156 29.932 28.2336 29.7549C28.3516 29.5778 28.5476 29.2155 28.6694 28.9499C28.7911 28.6842 28.9433 28.2495 29.0074 27.9838C29.0971 27.6135 29.1243 27.3382 29.1243 26.8031C29.1243 26.3501 29.0928 25.9551 29.0336 25.676C28.9839 25.4399 28.8531 25.0411 28.7436 24.7905C28.6341 24.5399 28.4349 24.1652 28.3009 23.9586C28.1663 23.752 27.8913 23.4273 27.6889 23.2373C27.4871 23.0473 27.1533 22.7806 26.9477 22.6448C26.7422 22.509 26.4057 22.3335 26.2001 22.2541C25.9946 22.1746 25.6704 22.0721 25.4792 22.026C25.2881 21.9798 24.8561 21.931 24.518 21.9181C24.1063 21.9025 23.7678 21.9208 23.4901 21.9739ZM50.0123 23.7531C49.7795 23.9731 49.2412 24.4357 48.815 24.7814C48.3889 25.127 47.7161 25.6283 47.3199 25.8955C46.9236 26.1628 46.3229 26.539 45.9848 26.7312C45.6468 26.9238 45.1182 27.2163 44.8101 27.3811C44.5019 27.5464 43.781 27.8904 43.208 28.1459C42.6351 28.4014 41.7582 28.7631 41.2589 28.9499C40.7597 29.1361 40.0147 29.4093 39.6035 29.5569C39.1924 29.7045 38.087 30.0598 37.1471 30.3463C36.2073 30.6329 34.7655 31.0677 33.9431 31.3124C33.1208 31.5571 31.9193 31.9296 31.2731 32.1411C30.627 32.352 29.7139 32.659 29.2439 32.8232C28.774 32.9874 27.8849 33.3084 27.2681 33.5365C26.6514 33.7646 25.6181 34.1778 24.9719 34.4547C24.3258 34.7317 23.3043 35.2034 22.7024 35.5034C22.1006 35.8029 21.3552 36.2033 21.047 36.3922C20.7389 36.5811 20.246 36.9096 19.9523 37.1227C19.6586 37.3352 19.1802 37.7205 18.8886 37.9792C18.5976 38.2379 18.1715 38.6667 17.9429 38.9324C17.7138 39.198 17.3774 39.621 17.1958 39.8716C17.0143 40.1222 16.7355 40.5333 16.5764 40.784C16.4167 41.0346 16.1572 41.5058 15.9997 41.8305C15.8416 42.1552 15.5928 42.7231 15.4459 43.0918C15.2991 43.461 15.0935 44.0648 14.9883 44.4335C14.8836 44.8027 14.7394 45.3818 14.6684 45.7216C14.5974 46.0613 14.5023 46.6044 14.4575 46.9291C14.4126 47.2538 14.3496 47.9666 14.3176 48.5124C14.2754 49.2246 14.2749 49.8085 14.316 50.5786C14.3475 51.169 14.4105 51.9783 14.4559 52.3766C14.5013 52.7748 14.623 53.6083 14.7261 54.2282C14.8292 54.848 14.9856 55.7057 15.0737 56.1334C15.1618 56.5612 15.3658 57.4306 15.5271 58.0655C15.6884 58.7004 15.9292 59.5817 16.0622 60.0245C16.1951 60.4672 16.4803 61.3007 16.6955 61.8761C16.9107 62.4514 17.1697 63.1158 17.2711 63.352C17.3726 63.5881 17.6743 64.2284 17.9413 64.7742C18.2083 65.32 18.5538 65.9812 18.7087 66.2437L18.9911 66.7197C19.0429 59.243 19.0744 56.7952 19.0942 56.4554C19.1134 56.1157 19.1652 55.5119 19.209 55.1137C19.2528 54.7155 19.3345 54.1235 19.3911 53.7988C19.4477 53.4741 19.5406 53.0152 19.5978 52.7791C19.6549 52.5429 19.7905 52.0481 19.8989 51.6789C20.0073 51.3102 20.2226 50.6817 20.3774 50.2835C20.5323 49.8852 20.7549 49.3657 20.873 49.1296C20.991 48.8934 21.2708 48.3803 21.4945 47.9891C21.7183 47.5978 22.0755 47.0332 22.2886 46.7338C22.5017 46.4348 22.868 45.9577 23.1029 45.6738C23.3379 45.3904 23.8425 44.8441 24.2243 44.4598C24.6062 44.0761 25.1829 43.5485 25.5059 43.2877C25.829 43.0268 26.3459 42.6479 26.654 42.445C26.9622 42.2427 27.2388 42.057 27.2681 42.0329C27.2975 42.0087 27.5618 41.8536 27.8555 41.6883C28.1492 41.523 28.6539 41.2536 28.9769 41.0894C29.3 40.9257 29.7924 40.6906 30.0716 40.5672C30.3509 40.4437 30.9752 40.1861 31.46 39.9945C31.9449 39.8029 32.9179 39.4417 33.6227 39.1911C34.3276 38.941 34.9642 38.7161 35.0378 38.6919C35.111 38.6673 35.6519 38.4494 36.2393 38.2078C36.8267 37.9663 37.836 37.5016 38.4821 37.1758C39.1283 36.8495 39.8369 36.4738 40.0574 36.3401C40.2775 36.2065 40.686 35.9527 40.9652 35.7766C41.2445 35.6 41.7449 35.2598 42.0781 35.0204C42.4113 34.7811 42.94 34.378 43.2529 34.1247C43.5658 33.8714 44.1105 33.398 44.463 33.0728C44.8154 32.7475 45.3798 32.1727 45.7178 31.7954C46.0559 31.4187 46.5845 30.7934 46.8932 30.4059C47.2013 30.0184 47.7097 29.3148 48.0226 28.8425C48.335 28.3702 48.6954 27.7906 48.8231 27.5545C48.9507 27.3183 49.2161 26.787 49.4131 26.3737C49.6096 25.9605 49.8772 25.3084 50.0069 24.9247C50.1372 24.5409 50.2916 24.0375 50.3498 23.8062C50.408 23.5749 50.4512 23.3784 50.4454 23.3693C50.4395 23.3602 50.2446 23.533 50.0123 23.7531Z" fill="#084E77"/>
<path d="M34.5365 43.346C34.8687 43.2823 35.4779 43.1938 35.8896 43.1496C36.3013 43.1047 36.9035 43.0652 37.2283 43.0605C37.553 43.0558 38.1749 43.0917 38.6102 43.1407C39.0455 43.1891 39.6869 43.2852 40.0352 43.3549C40.3836 43.4239 40.9277 43.5731 41.2444 43.6858C41.5611 43.7985 41.9952 43.9808 42.2088 44.0911C42.4224 44.2008 42.6297 44.3182 42.6694 44.3519C42.7092 44.3849 42.871 44.497 43.0293 44.6014C43.1877 44.7052 43.5118 44.9896 43.7502 45.2338C43.988 45.4781 44.2851 45.8367 44.41 46.0314C44.535 46.2261 44.7106 46.5712 44.7998 46.7983C44.8897 47.0255 45.0043 47.4237 45.0549 47.6833C45.1252 48.0431 45.1396 48.3511 45.1148 48.9811C45.0901 49.6059 45.0451 49.9504 44.9294 50.397C44.8459 50.7214 44.687 51.1863 44.5765 51.4294C44.4665 51.673 44.2949 52.0046 44.1953 52.1668C44.0957 52.329 43.8395 52.7007 43.6258 52.9927C43.4042 53.2959 42.9994 53.7384 42.6816 54.0251C42.3758 54.3006 41.9261 54.6723 41.682 54.851C41.4384 55.0298 41.0457 55.2947 40.8097 55.4398C40.5736 55.5855 40.2903 55.7666 40.1792 55.8427C40.068 55.9188 39.3426 56.3082 38.567 56.7076C37.7908 57.107 36.9876 57.5058 36.782 57.5943C36.5765 57.6827 35.76 58.0869 34.9683 58.4921C34.1766 58.8974 33.2824 59.3953 32.9819 59.5977C32.6807 59.8006 32.2662 60.1039 32.0606 60.272C31.8551 60.4395 31.5251 60.7687 30.9695 61.4289L34.4518 61.4442C36.3675 61.4525 37.9572 61.4389 37.9849 61.4147C38.0125 61.3899 38.1035 61.0649 38.187 60.6914C38.2699 60.318 38.3637 59.9133 38.4518 59.5706H43.2308L43.1969 59.7328C43.1779 59.8219 43.099 60.1475 43.0218 60.4555C42.9441 60.7634 42.6228 62.1639 42.3073 63.5674C41.9918 64.9709 41.6883 66.2788 41.5323 66.8292L23.4238 66.8268L23.4497 66.6941C23.4636 66.6209 23.5315 66.2693 23.5994 65.9124C23.668 65.5555 23.8205 64.9449 23.938 64.5556C24.0555 64.1662 24.215 63.7025 24.2915 63.5255C24.3687 63.3485 24.5956 62.8577 24.7965 62.4341C24.9969 62.0111 25.3072 61.4389 25.4857 61.1634C25.6642 60.8879 25.9556 60.4631 26.1335 60.2195C26.312 59.9764 26.6736 59.5381 26.9378 59.2461C27.2016 58.9541 27.6656 58.4798 27.9685 58.1919C28.2719 57.904 28.8431 57.4067 29.2393 57.0863C29.6348 56.7666 30.2567 56.2934 30.6211 56.0345C30.985 55.7761 31.4773 55.438 31.7151 55.284C31.9524 55.1295 32.7815 54.5702 33.5577 54.0405C34.3332 53.5107 35.2061 52.8989 35.4963 52.6812C35.7871 52.463 36.2017 52.129 36.4176 51.9385C36.6341 51.7479 36.9473 51.4294 37.1143 51.2306C37.2813 51.0318 37.511 50.6701 37.6244 50.4265C37.7379 50.1834 37.8576 49.9309 37.891 49.866C37.9238 49.8011 37.9641 49.5221 37.9797 49.2466C38.0062 48.7923 37.9941 48.7121 37.8524 48.3912C37.7666 48.1965 37.6394 47.9747 37.5703 47.8986C37.5012 47.8225 37.3146 47.6909 37.1563 47.6066C36.9099 47.475 36.7769 47.449 36.2351 47.4284C35.7543 47.4095 35.5182 47.4278 35.2562 47.5039C35.0662 47.5588 34.7553 47.6921 34.5653 47.7989C34.3355 47.9287 34.1185 48.1198 33.9175 48.3694C33.7511 48.5764 33.5283 48.931 33.4218 49.1581C33.3152 49.3852 33.1529 49.8159 33.0619 50.115C32.9174 50.5881 32.8805 50.656 32.7803 50.6341C32.717 50.6206 31.4128 50.5745 27.0985 50.456L27.1256 50.279C27.1405 50.1816 27.247 49.797 27.3622 49.4236C27.4779 49.0501 27.7088 48.4667 27.8758 48.1257C28.0428 47.7847 28.3318 47.2673 28.5184 46.9753C28.7211 46.6567 29.089 46.2078 29.4368 45.8538C29.7557 45.5294 30.1588 45.1677 30.3332 45.0503C30.5071 44.9324 30.8699 44.7111 31.1394 44.5583C31.4082 44.4055 31.862 44.1808 32.147 44.0581C32.432 43.9354 32.9502 43.7513 33.2985 43.6486C33.6469 43.546 34.2037 43.4103 34.5365 43.346Z" fill="#FABC14"/>
<path fill-rule="evenodd" clip-rule="evenodd" d="M58.0486 43.0605C58.5571 43.0565 59.1933 43.0793 59.4625 43.1106C59.7317 43.1424 60.2456 43.2471 60.6046 43.3432C60.9635 43.4394 61.404 43.5759 61.5834 43.647C61.7629 43.7175 62.0685 43.8592 62.2632 43.9616C62.4574 44.064 62.6841 44.1954 62.7662 44.254C62.8484 44.3126 62.9158 44.3478 62.9158 44.3319C62.9158 44.3166 62.95 44.1567 62.9925 43.9764C63.0349 43.7966 63.0838 43.5793 63.1333 43.3364H68.0821C70.8039 43.3364 73.0308 43.3495 73.0308 43.3649C73.0308 43.3808 72.8835 44.155 72.7035 45.0857C72.5229 46.0169 72.3027 47.1495 72.2135 47.6029C72.1243 48.0568 72.0514 48.4345 72.0514 48.4419C72.052 48.4499 71.6175 48.4562 70.1214 48.4556L69.9175 49.4653C69.8054 50.0211 69.4563 51.7942 69.142 53.4052C68.8271 55.0168 68.5568 56.3735 68.54 56.4202C68.5237 56.4674 68.4372 56.877 68.3475 57.3304C68.2577 57.7843 68.1229 58.4112 68.0473 58.7241C67.9722 59.0369 67.8113 59.6132 67.69 60.004C67.5687 60.3954 67.355 60.9711 67.2158 61.2839C67.076 61.5968 66.8264 62.0707 66.66 62.3363C66.4941 62.6026 66.1526 63.0531 65.9014 63.3375C65.6501 63.622 65.3222 63.957 65.1726 64.0816C65.0231 64.2062 64.668 64.4758 64.3841 64.6817C64.0997 64.8871 63.5983 65.196 63.2693 65.3672C62.9403 65.539 62.3285 65.8007 61.9097 65.9486C61.491 66.0965 60.8058 66.291 60.387 66.3809C59.9683 66.4708 59.3075 66.5829 58.9187 66.6307C58.5299 66.6784 57.7957 66.7422 57.2873 66.7734C56.7788 66.8042 55.8853 66.8292 55.3023 66.8292C54.7188 66.8292 53.8258 66.8036 53.3174 66.7723C52.8089 66.7416 51.8909 66.65 51.2781 66.5704C50.6646 66.4902 49.894 66.3758 49.565 66.3166C49.236 66.2569 48.6117 66.117 48.1783 66.0055C47.7443 65.8934 47.194 65.7358 46.9547 65.6545C46.7154 65.5732 46.5136 65.4975 46.506 65.4861C46.4984 65.4747 46.7415 65.126 47.046 64.7113C47.3506 64.2972 47.9211 63.5224 48.3137 62.9905C48.7063 62.4586 49.1365 61.8756 49.2692 61.6947C49.4236 61.4848 49.54 61.3755 49.5922 61.3932C49.6368 61.408 49.8815 61.4995 50.136 61.5968C50.39 61.6941 50.9164 61.8346 51.3052 61.9097C51.6941 61.9842 52.3913 62.0758 52.8551 62.1128C53.3424 62.152 54.1108 62.1674 54.6769 62.1486C55.2153 62.131 55.882 62.0764 56.1588 62.0275C56.4356 61.9785 56.8636 61.8716 57.1105 61.7897C57.3574 61.7077 57.706 61.5638 57.8855 61.47C58.0649 61.3761 58.3706 61.1901 58.5652 61.057C58.7594 60.9233 59.0498 60.6639 59.2102 60.4801C59.3706 60.2964 59.5827 59.967 59.6817 59.748C59.7807 59.529 59.9237 59.1325 59.9998 58.8663C60.076 58.6006 60.1635 58.2741 60.1945 58.141C60.2255 58.0084 60.2451 57.8987 60.2375 57.8981C60.2299 57.8969 60.089 57.9584 59.9248 58.034C59.76 58.1091 59.3565 58.2627 59.0275 58.3754C58.6985 58.488 58.2335 58.6342 57.9942 58.7008C57.7549 58.7679 57.3019 58.8697 56.9882 58.9283C56.6738 58.9869 56.062 59.0637 55.6286 59.099C55.1887 59.1354 54.5519 59.1473 54.1875 59.1263C53.8286 59.1058 53.3087 59.0517 53.0319 59.0062C52.7551 58.9607 52.2537 58.831 51.917 58.7184C51.5804 58.6063 51.1214 58.4192 50.8974 58.3031C50.6728 58.1871 50.3302 57.9794 50.136 57.8412C49.9413 57.7035 49.59 57.3975 49.354 57.162C49.1185 56.9259 48.8216 56.5795 48.6944 56.3917C48.5671 56.204 48.3958 55.9099 48.3132 55.7376C48.2305 55.5658 48.1168 55.2842 48.0603 55.1118C48.0037 54.94 47.9091 54.5174 47.8498 54.1732C47.7905 53.829 47.7427 53.3939 47.7421 53.2061C47.7421 53.0184 47.7894 52.532 47.8476 52.1253C47.9058 51.7186 48.0179 51.1173 48.0967 50.7885C48.1756 50.4602 48.3605 49.8715 48.5073 49.4801C48.6541 49.0893 48.9238 48.513 49.1066 48.2002C49.2893 47.8873 49.5928 47.4265 49.7809 47.1762C49.9685 46.9259 50.3519 46.4896 50.632 46.2057C50.9126 45.9224 51.3498 45.5294 51.6043 45.3325C51.8583 45.1351 52.2868 44.8325 52.556 44.659C52.8252 44.4855 53.2287 44.2557 53.4533 44.1482C53.6774 44.0407 54.0325 43.8808 54.2419 43.7926C54.4512 43.705 54.9407 43.5429 55.3295 43.4331C55.7183 43.3233 56.2197 43.2056 56.4443 43.1714C56.6684 43.1373 56.9131 43.1003 56.9882 43.0884C57.0627 43.077 57.5401 43.0645 58.0486 43.0605ZM58.2525 48.1723C57.9295 48.3361 57.7087 48.4994 57.464 48.7571C57.2769 48.9539 57.0099 49.2935 56.8701 49.5108C56.7304 49.7287 56.5406 50.0734 56.4492 50.2765C56.3579 50.4802 56.2197 50.9022 56.1431 51.2151C56.0664 51.528 55.9897 51.9888 55.9718 52.2391C55.9533 52.5025 55.9674 52.862 56.0055 53.0924C56.0419 53.3114 56.1409 53.6442 56.2252 53.8319C56.3187 54.0395 56.4829 54.2716 56.6428 54.4241C56.788 54.5617 57.0164 54.7278 57.1513 54.7938C57.3601 54.8956 57.4993 54.9127 58.103 54.9127C58.631 54.9127 58.8823 54.8877 59.0955 54.8132C59.2526 54.7586 59.5338 54.6135 59.7208 54.4912C59.9079 54.3689 60.1853 54.1317 60.3375 53.965C60.4898 53.7977 60.7084 53.5076 60.8232 53.3199C60.9379 53.1322 61.0994 52.825 61.1826 52.6373C61.2653 52.4495 61.3838 52.0912 61.4458 51.8409C61.5078 51.5906 61.5862 51.1554 61.6204 50.8738C61.6672 50.4858 61.6666 50.2452 61.6182 49.8783C61.5764 49.5654 61.4921 49.2565 61.3784 49.0023C61.2571 48.7309 61.119 48.5324 60.9308 48.3589C60.7813 48.2206 60.5366 48.0614 60.387 48.005C60.2375 47.9482 59.9558 47.8884 59.7616 47.8719C59.5669 47.8554 59.2488 47.8651 59.0547 47.8935C58.835 47.926 58.5315 48.0312 58.2525 48.1723Z" fill="#00AF4D"/>
<path d="M89.3574 66.8226V66.3563L89.8388 66.2655V62.9744L89.3574 62.8836V62.4143H89.8388H91.4253C91.7543 62.4143 92.0359 62.4718 92.27 62.5869C92.5062 62.7019 92.6868 62.8624 92.812 63.0683C92.9371 63.2721 92.9997 63.5113 92.9997 63.7858C92.9997 64.0603 92.9371 64.3005 92.812 64.5064C92.6868 64.7103 92.5062 64.8687 92.27 64.9818C92.0359 65.0948 91.7543 65.1513 91.4253 65.1513H90.6018V66.2655L91.0832 66.3563V66.8226H89.3574ZM90.6018 64.5609H91.4253C91.6958 64.5609 91.8986 64.4883 92.0339 64.3429C92.1691 64.1976 92.2367 64.0139 92.2367 63.7919C92.2367 63.5658 92.1691 63.3781 92.0339 63.2287C91.8986 63.0794 91.6958 63.0047 91.4253 63.0047H90.6018V64.5609Z" fill="#084E77"/>
<path d="M84.834 66.8226V66.3563L85.1549 66.3109L86.6142 62.4143H87.356L88.7972 66.3109L89.1181 66.3563V66.8226H87.7163V66.3563L88.0312 66.2988L87.7981 65.6055H86.1571L85.9179 66.2988L86.2358 66.3563V66.8226H84.834ZM86.3569 65.0211H87.6013L87.029 63.3892L86.9897 63.2711H86.9715L86.9291 63.3953L86.3569 65.0211Z" fill="#084E77"/>
<path d="M83.0931 66.8865C82.6591 66.8865 82.2877 66.7947 81.9789 66.611C81.6721 66.4253 81.437 66.1669 81.2735 65.8359C81.112 65.5029 81.0312 65.1163 81.0312 64.6763V64.5643C81.0312 64.1344 81.112 63.7539 81.2735 63.4229C81.4349 63.0898 81.666 62.8284 81.9668 62.6387C82.2675 62.447 82.6268 62.3511 83.0446 62.3511C83.3373 62.3511 83.6088 62.3945 83.8591 62.4813C84.1094 62.5681 84.3274 62.6902 84.5131 62.8476V63.8649H83.9317L83.853 63.1837C83.7864 63.1352 83.7127 63.0939 83.632 63.0595C83.5513 63.0252 83.4625 62.999 83.3656 62.9808C83.2707 62.9627 83.1668 62.9536 83.0537 62.9536C82.7893 62.9536 82.5622 63.0202 82.3725 63.1534C82.1848 63.2866 82.0415 63.4733 81.9426 63.7135C81.8437 63.9537 81.7942 64.2353 81.7942 64.5582V64.6763C81.7942 65.0114 81.8467 65.3 81.9517 65.5422C82.0566 65.7824 82.207 65.9671 82.4028 66.0963C82.6006 66.2255 82.8367 66.2901 83.1113 66.2901C83.2445 66.2901 83.3757 66.2749 83.5048 66.2446C83.636 66.2123 83.7511 66.171 83.85 66.1205L83.9317 65.5029H84.507V66.5141C84.3375 66.6251 84.1296 66.7149 83.8833 66.7836C83.6391 66.8522 83.3757 66.8865 83.0931 66.8865Z" fill="#084E77"/>
<path d="M76.3223 66.8226V66.3563L76.8037 66.2655V62.9744L76.3223 62.8836V62.4143H76.8037H77.5757L79.5982 65.6327L79.6164 65.6267V62.9744L79.0593 62.8836V62.4143H80.3036H80.785V62.8836L80.3036 62.9744V66.8226H79.58L77.5091 63.6163L77.4909 63.6193V66.2655L78.048 66.3563V66.8226H76.3223Z" fill="#084E77"/>
<path d="M74.3164 66.8226V66.3563L74.7978 66.2655V62.9744L74.3164 62.8836V62.4143H76.0391V62.8836L75.5608 62.9744V66.2655L76.0391 66.3563V66.8226H74.3164Z" fill="#084E77"/>
<path d="M70.6191 66.8226V66.3563L71.1005 66.2655V62.9744L70.6191 62.8836V62.4143H74.0464V63.5588H73.453L73.4046 63.0047H71.8635V64.349H73.4349V64.9394H71.8635V66.2655L72.3449 66.3563V66.8226H70.6191Z" fill="#084E77"/>
</svg>
